Simulation
nRows=44
nColumns=15
endheader
time  TH_x TH_y TH_z SC_y  SC_z  SC_x  AC_y  AC_z  AC_x  GH_y  GH_z  GH_yy  EL_x  PS_y
0.0  0.000000  0.000000  0.000000  -29.971488090967835  0.20191049988087856  4.302508075109349  53.98404688543247  3.4323276856662304  -9.247037902918239  83.57004577370682  1.7022138024707822  -56.89691323328756  22.790428361655554  0.000000
0.031  0.000000  0.000000  0.000000  -29.953297134082426  0.03900142121195737  4.726037717854693  53.840314198633145  2.9847899224653873  -9.771308852115142  81.63365305253105  1.763942834950225  -54.783424861211344  22.759442055274086  0.000000
0.062  0.000000  0.000000  0.000000  -29.91120129544998  -0.09855970111687594  5.1620765731524925  53.70605506452433  2.5767315922496357  -10.277038927857065  79.68263212935834  1.8417508893920376  -52.68206234073798  22.719381699433317  0.000000
0.093  0.000000  0.000000  0.000000  -29.86665566444583  -0.2150206389143124  5.602267357021948  53.580446581497284  2.204492798987881  -10.760451120132743  77.70028841408136  1.960273637697692  -50.60741587747405  22.65790657770449  0.000000
0.124  0.000000  0.000000  0.000000  -29.823947334114074  -0.31400274950936924  6.041638865787581  53.46776037852073  1.8619588174075419  -11.219809610488584  75.67748199243476  2.1463163643926597  -48.566604497280274  22.56781439660061  0.000000
0.155  0.000000  0.000000  0.000000  -29.794807566415283  -0.39901193415708397  6.479174656684446  53.37240497696786  1.5438050501211569  -11.653323114452155  73.60346666717919  2.4287656590946547  -46.568789493702546  22.445916300554494  0.000000
0.186  0.000000  0.000000  0.000000  -29.783550195509296  -0.4724803226672032  6.915191225878715  53.29771460781294  1.2466890867989258  -12.059790759412307  71.47129569666195  2.829069983684483  -44.620284014905046  22.29300362070947  0.000000
0.217  0.000000  0.000000  0.000000  -29.795510631046696  -0.5357772335799467  7.349092115754165  53.244829861145774  0.9682400598473713  -12.438421239310772  69.2766844804577  3.357522912623181  -42.72614114267912  22.11379307925688  0.000000
0.248  0.000000  0.000000  0.000000  -29.830562647439145  -0.5889292444022178  7.776968766458553  53.20900224343007  0.7061498467604305  -12.79009381270154  67.01772548035532  4.007268358750914  -40.890901835225684  21.91818043621334  0.000000
0.279  0.000000  0.000000  0.000000  -29.88275243041946  -0.6297504010355608  8.19210833564381  53.1817519657873  0.4598030596953083  -13.116381610180992  64.69766977795703  4.755317784893787  -39.11609983110372  21.721798192895616  0.000000
0.31  0.000000  0.000000  0.000000  -29.943507151007825  -0.6554713418192782  8.586369257929595  53.156124629286765  0.23135641413753322  -13.416610035245146  62.32326916902446  5.574188171949392  -37.402348000633694  21.54288675526461  0.000000
0.34099999999999997  0.000000  0.000000  0.000000  -30.007982951697162  -0.6665025173622439  8.951747621529558  53.134999608507144  0.02474243908589414  -13.683751024572341  59.90384502946434  6.447390021969504  -35.75089965323786  21.39580784270889  0.000000
0.372  0.000000  0.000000  0.000000  -30.077960594474366  -0.668550334117912  9.280828323094411  53.13284110024289  -0.1580528174073988  -13.90373104484365  57.44881119916002  7.377860496449322  -34.166707634901684  21.28772182113305  0.000000
0.403  0.000000  0.000000  0.000000  -30.15755914366674  -0.6704506746090946  9.567516462590625  53.169052285084305  -0.31714289190380246  -14.060353880649513  54.96953312049547  8.380879728080819  -32.65604153414426  21.220090075292987  0.000000
0.434  0.000000  0.000000  0.000000  -30.247102746844718  -0.6780317057794646  9.806699643995676  53.25666159946591  -0.4508093587198073  -14.142219572768933  52.482263704950505  9.469569630334249  -31.2220395710171  21.193142126770653  0.000000
0.46499999999999997  0.000000  0.000000  0.000000  -30.341638026534383  -0.6891836513235389  9.994117811234952  53.394755199040844  -0.5522771759168632  -14.146722111265852  50.00958074559532  10.64585712179587  -29.86181239168942  21.206300501280026  0.000000
0.496  0.000000  0.000000  0.000000  -30.43407405666773  -0.6942356614790144  10.127797934992882  53.56882579156042  -0.6106192055235646  -14.079864425188177  47.579556381450814  11.901979851417005  -28.567114196365196  21.255413160650598  0.000000
0.527  0.000000  0.000000  0.000000  -30.519150920938877  -0.6806158988082784  10.209642206097438  53.757737574023544  -0.6158706338884564  -13.952836408632136  45.22236426216542  13.228429563597665  -27.329269777088733  21.33054432930358  0.000000
0.558  0.000000  0.000000  0.000000  -30.595242036826615  -0.6383160277928426  10.245596190822763  53.942538025399664  -0.5637239877855067  -13.778393252491535  42.96644893213381  14.620550572386684  -26.144704590210285  21.41736026858572  0.000000
0.589  0.000000  0.000000  0.000000  -30.663512816132826  -0.5630968601176465  10.244904973850737  54.111536227627305  -0.45658764432975735  -13.56866895639215  40.83596280574988  16.079448282279305  -25.017614507642275  21.501160310706016  0.000000
0.62  0.000000  0.000000  0.000000  -30.7259477196826  -0.45676180216138  10.218805549804472  54.261316649653935  -0.3018177812993252  -13.33449371366848  38.84921345647746  17.609439993867387  -23.95953535305642  21.57001026837977  0.000000
0.651  0.000000  0.000000  0.000000  -30.783261257954614  -0.32556329551489654  10.17944709427223  54.394782791222845  -0.1084925589370589  -13.08540540777379  37.01799837363794  19.214106058464147  -22.98623035160958  21.616252670038534  0.000000
0.6819999999999999  0.000000  0.000000  0.000000  -30.833482886653833  -0.1777523241623055  10.139600997522527  54.51779329591942  0.1149724594372387  -12.830290882989058  35.34757987179316  20.892997495562103  -22.113470219671463  21.636379877102804  0.000000
0.713  0.000000  0.000000  0.000000  -30.872567504713576  -0.02120712837581415  10.113056855422254  54.63578043205983  0.3622325870729434  -12.578080453443768  33.83709775271903  22.639575955832672  -21.353347996113968  21.630177304406807  0.000000
0.744  0.000000  0.000000  0.000000  -30.896306102274792  0.1389201855936803  10.11579049263783  54.751998518231005  0.6288896055393327  -12.338216693845537  32.48104692938841  24.44112722961457  -20.71215089567036  21.599521500475813  0.000000
0.775  0.000000  0.000000  0.000000  -30.90152971448392  0.3012701812168901  10.165656984613769  54.868341292662045  0.9109999891620858  -12.120189455688944  31.271255709230513  26.279876986472384  -20.19068834747614  21.546665676261302  0.000000
0.806  0.000000  0.000000  0.000000  -30.886939425678747  0.46599841953929305  10.280625128383507  54.985941267775836  1.203051150541051  -11.932547595969552  30.198840085018134  28.133627928131112  -19.785725288558933  21.472829136342316  0.000000
0.837  0.000000  0.000000  0.000000  -30.85281140896811  0.6325830877820888  10.477328059222456  55.10560429494914  1.4960617431142282  -11.78236724964418  29.255240644661946  29.9765566547471  -19.491652989874478  21.377640021101275  0.000000
0.868  0.000000  0.000000  0.000000  -30.800267613650043  0.8000162850086134  10.76861404834484  55.22812968702473  1.7791001777611901  -11.674689419203697  28.432035569927937  31.781611609395014  -19.3013925742089  21.25955216132437  0.000000
0.899  0.000000  0.000000  0.000000  -30.731829516121685  0.9676548974658759  11.16190584360293  55.353877642015  2.041987228558603  -11.611913450467092  27.719597102718105  33.524020800830016  -19.206681045086096  21.11680167704266  0.000000
0.9299999999999999  0.000000  0.000000  0.000000  -30.6519632543598  1.1360745859720096  11.659451454371336  55.48244845388203  2.276402104254095  -11.59335578083163  27.106021694510087  35.184221026988  -19.198114081177156  20.947998064695664  0.000000
0.961  0.000000  0.000000  0.000000  -30.56731253160163  1.3073788483197395  12.25871740457114  55.613207569213714  2.47650397008733  -11.614776499377014  26.577066243354906  36.749527848221  -19.265091996358173  20.752812461598978  0.000000
0.992  0.000000  0.000000  0.000000  -30.486838624488506  1.4851183307849194  12.952980586386257  55.7459961073499  2.639085692839381  -11.667778914592919  26.116706731782422  38.21445567426646  -19.395648139200684  20.532565965240927  0.000000
1.023  0.000000  0.000000  0.000000  -30.421098876962656  1.6740091991415573  13.731912932363485  55.88217584426755  2.763794742369448  -11.739597406146045  25.70756907143776  39.58007295788737  -19.576026358054577  20.290459991021287  0.000000
1.054  0.000000  0.000000  0.000000  -30.38100350901649  1.8792776203915578  14.582257776448964  56.0252036647794  2.8534166913764967  -11.813307366046514  25.331143405498228  40.85285422691975  -19.7896614093171  20.031602599332384  0.000000
1.085  0.000000  0.000000  0.000000  -30.37639358892732  2.10580396247258  15.488197088229409  56.18064485310581  2.9141670172518466  -11.868703858726448  24.96797182354289  42.043282999369616  -20.016250578491785  19.762925575237727  0.000000
1.116  0.000000  0.000000  0.000000  -30.414948357248  2.3572899319244556  16.43163205940103  56.355065757924585  2.9557049516277805  -11.88393686470493  24.59869697429862  43.16410475228738  -20.231718792857045  19.492973804557277  0.000000
1.147  0.000000  0.000000  0.000000  -30.50188446915887  2.635674675195884  17.39296173185049  56.554179553313126  2.9902001381866197  -11.838331037038916  24.206029099244702  44.22858307347053  -20.410497079676457  19.23129904373369  0.000000
1.178  0.000000  0.000000  0.000000  -30.640555989022868  2.9409237285485608  18.351998657192116  56.78048994268687  3.03129205651273  -11.715236851357012  23.777210538920723  45.24867213982216  -20.52942115647598  18.987481307492224  0.000000
1.209  0.000000  0.000000  0.000000  -30.83329954988512  3.271405189690298  19.288826577932085  57.03214093886864  3.092773425581957  -11.503967167545632  23.305711893092493  46.233756836214624  -20.572049319604076  18.76965041591393  0.000000
1.24  0.000000  0.000000  0.000000  -31.081761916426675  3.624598282732159  20.18524278685727  57.30349254735104  3.1867240998326642  -11.200253830912853  22.791228452210625  47.18998284901296  -20.531345047924816  18.58313898993163  0.000000
1.271  0.000000  0.000000  0.000000  -31.386395673328423  3.9974501716014457  21.026352084101102  57.58703151596522  3.3219054336274723  -10.805562726593019  22.23810882791077  48.12037848026021  -20.410005661976864  18.429785427786015  0.000000
1.302  0.000000  0.000000  0.000000  -31.745306691502662  4.386351957044519  21.80176045603811  57.87540523634203  3.503191861745301  -10.325678835127807  21.653125930534276  49.02535453926525  -20.21872639206581  18.3080243995718  0.000000
1.333  0.000000  0.000000  0.000000  -32.153346068202694  4.787005037444107  22.505816018957432  58.16274242347368  3.732052749939529  -9.769280359653132  21.043656750473502  49.90333595559471  -19.97365393222395  18.21370110712808  0.000000
